STARTFONT 2.1
COMMENT Transformed from cp1252 to Unicode ordering
COMMENT Transformed from SYMBIAN FSC to EPOC BDF format
COMMENT Original font file name: squashed.fsc
FONT squashed
SIZE 13 72 72
FONTBOUNDINGBOX 11 13 0 -2
STARTPROPERTIES 6
Uid 268435701
MaxNormalCharWidth 11
MaxConsecutiveFillChars 5
FONT_ASCENT 10
FONT_DESCENT 2
COPYRIGHT "Copyright (c) 1999 Symbian Ltd."
ENDPROPERTIES
CHARS 219
STARTCHAR C32
ENCODING 32
SWIDTH 154 0
DWIDTH 2 0
BBX 0 0 0 0
BITMAP
ENDCHAR
STARTCHAR C33
ENCODING 33
SWIDTH 154 0
DWIDTH 2 0
BBX 1 10 1 1
BITMAP
80
80
80
80
80
80
80
80
00
80
ENDCHAR
STARTCHAR C34
ENCODING 34
SWIDTH 308 0
DWIDTH 4 0
BBX 3 3 1 8
BITMAP
A0
A0
A0
ENDCHAR
STARTCHAR C35
ENCODING 35
SWIDTH 462 0
DWIDTH 6 0
BBX 7 10 -1 1
BITMAP
14
14
24
FE
28
28
FE
50
50
50
ENDCHAR
STARTCHAR C36
ENCODING 36
SWIDTH 462 0
DWIDTH 6 0
BBX 5 11 1 0
BITMAP
70
A8
A0
A0
E0
38
28
A8
A8
70
20
ENDCHAR
STARTCHAR C37
ENCODING 37
SWIDTH 769 0
DWIDTH 10 0
BBX 10 10 0 1
BITMAP
6100
9200
9200
9400
6400
0980
0A40
1240
1240
2180
ENDCHAR
STARTCHAR C38
ENCODING 38
SWIDTH 615 0
DWIDTH 8 0
BBX 8 10 0 1
BITMAP
30
48
48
48
30
60
92
8A
8C
73
ENDCHAR
STARTCHAR C39
ENCODING 39
SWIDTH 154 0
DWIDTH 2 0
BBX 1 3 1 8
BITMAP
80
80
80
ENDCHAR
STARTCHAR C40
ENCODING 40
SWIDTH 308 0
DWIDTH 4 0
BBX 3 13 1 -2
BITMAP
20
40
40
80
80
80
80
80
80
80
40
40
20
ENDCHAR
STARTCHAR C41
ENCODING 41
SWIDTH 231 0
DWIDTH 3 0
BBX 3 13 0 -2
BITMAP
80
40
40
20
20
20
20
20
20
20
40
40
80
ENDCHAR
STARTCHAR C42
ENCODING 42
SWIDTH 385 0
DWIDTH 5 0
BBX 5 4 0 7
BITMAP
20
F8
20
50
ENDCHAR
STARTCHAR C43
ENCODING 43
SWIDTH 462 0
DWIDTH 6 0
BBX 6 7 0 2
BITMAP
10
10
10
FC
10
10
10
ENDCHAR
STARTCHAR C44
ENCODING 44
SWIDTH 231 0
DWIDTH 3 0
BBX 1 3 2 -1
BITMAP
80
80
80
ENDCHAR
STARTCHAR C45
ENCODING 45
SWIDTH 231 0
DWIDTH 3 0
BBX 3 1 0 4
BITMAP
E0
ENDCHAR
STARTCHAR C46
ENCODING 46
SWIDTH 231 0
DWIDTH 3 0
BBX 1 1 1 1
BITMAP
80
ENDCHAR
STARTCHAR C47
ENCODING 47
SWIDTH 308 0
DWIDTH 4 0
BBX 4 10 0 1
BITMAP
10
10
20
20
20
40
40
40
80
80
ENDCHAR
STARTCHAR C48
ENCODING 48
SWIDTH 385 0
DWIDTH 5 0
BBX 5 10 0 1
BITMAP
70
88
88
88
88
88
88
88
88
70
ENDCHAR
STARTCHAR C49
ENCODING 49
SWIDTH 385 0
DWIDTH 5 0
BBX 3 10 1 1
BITMAP
20
60
A0
20
20
20
20
20
20
20
ENDCHAR
STARTCHAR C50
ENCODING 50
SWIDTH 385 0
DWIDTH 5 0
BBX 5 10 0 1
BITMAP
70
88
08
08
08
10
20
40
40
F8
ENDCHAR
STARTCHAR C51
ENCODING 51
SWIDTH 385 0
DWIDTH 5 0
BBX 5 10 0 1
BITMAP
70
88
08
08
30
08
08
08
88
70
ENDCHAR
STARTCHAR C52
ENCODING 52
SWIDTH 385 0
DWIDTH 5 0
BBX 5 10 0 1
BITMAP
10
10
30
30
30
50
50
F8
10
10
ENDCHAR
STARTCHAR C53
ENCODING 53
SWIDTH 385 0
DWIDTH 5 0
BBX 5 10 0 1
BITMAP
78
40
40
80
F0
88
08
08
88
70
ENDCHAR
STARTCHAR C54
ENCODING 54
SWIDTH 385 0
DWIDTH 5 0
BBX 5 10 0 1
BITMAP
70
88
80
80
B0
C8
88
88
88
70
ENDCHAR
STARTCHAR C55
ENCODING 55
SWIDTH 385 0
DWIDTH 5 0
BBX 5 10 0 1
BITMAP
F8
10
10
20
20
20
40
40
40
40
ENDCHAR
STARTCHAR C56
ENCODING 56
SWIDTH 385 0
DWIDTH 5 0
BBX 5 10 0 1
BITMAP
70
88
88
88
70
88
88
88
88
70
ENDCHAR
STARTCHAR C57
ENCODING 57
SWIDTH 385 0
DWIDTH 5 0
BBX 5 10 0 1
BITMAP
70
88
88
88
98
68
08
08
90
60
ENDCHAR
STARTCHAR C58
ENCODING 58
SWIDTH 231 0
DWIDTH 3 0
BBX 1 7 1 1
BITMAP
80
00
00
00
00
00
80
ENDCHAR
STARTCHAR C59
ENCODING 59
SWIDTH 231 0
DWIDTH 3 0
BBX 1 9 1 -1
BITMAP
80
00
00
00
00
00
80
80
80
ENDCHAR
STARTCHAR C60
ENCODING 60
SWIDTH 385 0
DWIDTH 5 0
BBX 5 7 0 2
BITMAP
08
10
60
80
60
10
08
ENDCHAR
STARTCHAR C61
ENCODING 61
SWIDTH 385 0
DWIDTH 5 0
BBX 5 4 0 4
BITMAP
F8
00
00
F8
ENDCHAR
STARTCHAR C62
ENCODING 62
SWIDTH 385 0
DWIDTH 5 0
BBX 5 7 0 2
BITMAP
80
60
10
08
10
60
80
ENDCHAR
STARTCHAR C63
ENCODING 63
SWIDTH 385 0
DWIDTH 5 0
BBX 5 10 0 1
BITMAP
70
88
88
08
10
20
20
20
00
20
ENDCHAR
STARTCHAR C64
ENCODING 64
SWIDTH 846 0
DWIDTH 11 0
BBX 11 13 0 -2
BITMAP
0F00
3080
4040
4F20
9320
A120
A220
A240
A240
9F80
4020
30C0
1F00
ENDCHAR
STARTCHAR C65
ENCODING 65
SWIDTH 462 0
DWIDTH 6 0
BBX 6 10 0 1
BITMAP
30
30
30
48
48
48
FC
84
84
84
ENDCHAR
STARTCHAR C66
ENCODING 66
SWIDTH 385 0
DWIDTH 5 0
BBX 5 10 0 1
BITMAP
F0
88
88
88
F0
88
88
88
88
F0
ENDCHAR
STARTCHAR C67
ENCODING 67
SWIDTH 385 0
DWIDTH 5 0
BBX 5 10 0 1
BITMAP
30
50
88
80
80
80
80
88
50
20
ENDCHAR
STARTCHAR C68
ENCODING 68
SWIDTH 385 0
DWIDTH 5 0
BBX 5 10 0 1
BITMAP
E0
90
88
88
88
88
88
88
90
E0
ENDCHAR
STARTCHAR C69
ENCODING 69
SWIDTH 385 0
DWIDTH 5 0
BBX 5 10 0 1
BITMAP
F8
80
80
80
F0
80
80
80
80
F8
ENDCHAR
STARTCHAR C70
ENCODING 70
SWIDTH 385 0
DWIDTH 5 0
BBX 5 10 0 1
BITMAP
F8
80
80
80
F0
80
80
80
80
80
ENDCHAR
STARTCHAR C71
ENCODING 71
SWIDTH 462 0
DWIDTH 6 0
BBX 6 10 0 1
BITMAP
30
48
84
80
80
9C
84
84
48
30
ENDCHAR
STARTCHAR C72
ENCODING 72
SWIDTH 385 0
DWIDTH 5 0
BBX 5 10 0 1
BITMAP
88
88
88
88
F8
88
88
88
88
88
ENDCHAR
STARTCHAR C73
ENCODING 73
SWIDTH 231 0
DWIDTH 3 0
BBX 3 10 0 1
BITMAP
E0
40
40
40
40
40
40
40
40
E0
ENDCHAR
STARTCHAR C74
ENCODING 74
SWIDTH 385 0
DWIDTH 5 0
BBX 4 10 0 1
BITMAP
10
10
10
10
10
10
10
90
90
60
ENDCHAR
STARTCHAR C75
ENCODING 75
SWIDTH 462 0
DWIDTH 6 0
BBX 6 10 0 1
BITMAP
84
88
90
A0
A0
C0
C0
A0
90
88
ENDCHAR
STARTCHAR C76
ENCODING 76
SWIDTH 385 0
DWIDTH 5 0
BBX 5 10 0 1
BITMAP
80
80
80
80
80
80
80
80
80
F8
ENDCHAR
STARTCHAR C77
ENCODING 77
SWIDTH 692 0
DWIDTH 9 0
BBX 8 10 0 1
BITMAP
81
C3
C3
A5
A5
99
99
99
81
81
ENDCHAR
STARTCHAR C78
ENCODING 78
SWIDTH 538 0
DWIDTH 7 0
BBX 6 10 0 1
BITMAP
84
C4
A4
A4
A4
94
94
94
8C
84
ENDCHAR
STARTCHAR C79
ENCODING 79
SWIDTH 462 0
DWIDTH 6 0
BBX 6 10 0 1
BITMAP
30
48
84
84
84
84
84
84
48
30
ENDCHAR
STARTCHAR C80
ENCODING 80
SWIDTH 385 0
DWIDTH 5 0
BBX 5 10 0 1
BITMAP
F0
88
88
88
88
F0
80
80
80
80
ENDCHAR
STARTCHAR C81
ENCODING 81
SWIDTH 462 0
DWIDTH 6 0
BBX 6 10 0 1
BITMAP
30
48
84
84
84
84
84
94
48
34
ENDCHAR
STARTCHAR C82
ENCODING 82
SWIDTH 385 0
DWIDTH 5 0
BBX 5 10 0 1
BITMAP
F0
88
88
88
88
F0
A0
90
90
88
ENDCHAR
STARTCHAR C83
ENCODING 83
SWIDTH 385 0
DWIDTH 5 0
BBX 5 10 0 1
BITMAP
70
88
88
80
60
10
08
88
88
70
ENDCHAR
STARTCHAR C84
ENCODING 84
SWIDTH 385 0
DWIDTH 5 0
BBX 5 10 0 1
BITMAP
F8
20
20
20
20
20
20
20
20
20
ENDCHAR
STARTCHAR C85
ENCODING 85
SWIDTH 462 0
DWIDTH 6 0
BBX 6 10 0 1
BITMAP
84
84
84
84
84
84
84
84
48
30
ENDCHAR
STARTCHAR C86
ENCODING 86
SWIDTH 385 0
DWIDTH 5 0
BBX 5 10 0 1
BITMAP
88
88
88
88
88
88
50
50
20
20
ENDCHAR
STARTCHAR C87
ENCODING 87
SWIDTH 538 0
DWIDTH 7 0
BBX 7 10 0 1
BITMAP
82
82
82
82
92
AA
AA
AA
44
44
ENDCHAR
STARTCHAR C88
ENCODING 88
SWIDTH 385 0
DWIDTH 5 0
BBX 5 10 0 1
BITMAP
88
88
88
50
20
20
50
88
88
88
ENDCHAR
STARTCHAR C89
ENCODING 89
SWIDTH 385 0
DWIDTH 5 0
BBX 5 10 0 1
BITMAP
88
88
88
50
50
20
20
20
20
20
ENDCHAR
STARTCHAR C90
ENCODING 90
SWIDTH 385 0
DWIDTH 5 0
BBX 5 10 0 1
BITMAP
F8
10
20
20
20
40
40
40
80
F8
ENDCHAR
STARTCHAR C91
ENCODING 91
SWIDTH 154 0
DWIDTH 2 0
BBX 2 13 0 -2
BITMAP
C0
80
80
80
80
80
80
80
80
80
80
80
C0
ENDCHAR
STARTCHAR C92
ENCODING 92
SWIDTH 308 0
DWIDTH 4 0
BBX 4 10 0 1
BITMAP
80
80
40
40
40
20
20
20
10
10
ENDCHAR
STARTCHAR C93
ENCODING 93
SWIDTH 154 0
DWIDTH 2 0
BBX 2 13 0 -2
BITMAP
C0
40
40
40
40
40
40
40
40
40
40
40
C0
ENDCHAR
STARTCHAR C94
ENCODING 94
SWIDTH 385 0
DWIDTH 5 0
BBX 5 3 0 8
BITMAP
20
50
88
ENDCHAR
STARTCHAR C95
ENCODING 95
SWIDTH 385 0
DWIDTH 5 0
BBX 5 1 0 -2
BITMAP
F8
ENDCHAR
STARTCHAR C96
ENCODING 96
SWIDTH 77 0
DWIDTH 1 0
BBX 1 3 0 8
BITMAP
80
80
80
ENDCHAR
STARTCHAR C97
ENCODING 97
SWIDTH 308 0
DWIDTH 4 0
BBX 4 7 0 1
BITMAP
60
90
10
70
90
B0
50
ENDCHAR
STARTCHAR C98
ENCODING 98
SWIDTH 308 0
DWIDTH 4 0
BBX 4 10 0 1
BITMAP
80
80
80
A0
D0
90
90
90
90
E0
ENDCHAR
STARTCHAR C99
ENCODING 99
SWIDTH 308 0
DWIDTH 4 0
BBX 4 7 0 1
BITMAP
60
90
80
80
80
90
60
ENDCHAR
STARTCHAR C100
ENCODING 100
SWIDTH 385 0
DWIDTH 5 0
BBX 4 10 0 1
BITMAP
10
10
10
50
B0
90
90
90
90
70
ENDCHAR
STARTCHAR C101
ENCODING 101
SWIDTH 308 0
DWIDTH 4 0
BBX 4 7 0 1
BITMAP
60
90
90
F0
80
90
60
ENDCHAR
STARTCHAR C102
ENCODING 102
SWIDTH 308 0
DWIDTH 4 0
BBX 4 10 0 1
BITMAP
30
40
40
E0
40
40
40
40
40
40
ENDCHAR
STARTCHAR C103
ENCODING 103
SWIDTH 308 0
DWIDTH 4 0
BBX 4 10 0 -2
BITMAP
50
B0
90
90
90
B0
50
10
90
60
ENDCHAR
STARTCHAR C104
ENCODING 104
SWIDTH 308 0
DWIDTH 4 0
BBX 4 10 0 1
BITMAP
80
80
80
A0
D0
90
90
90
90
90
ENDCHAR
STARTCHAR C105
ENCODING 105
SWIDTH 154 0
DWIDTH 2 0
BBX 1 10 0 1
BITMAP
80
00
00
80
80
80
80
80
80
80
ENDCHAR
STARTCHAR C106
ENCODING 106
SWIDTH 231 0
DWIDTH 3 0
BBX 3 13 0 -2
BITMAP
20
00
00
20
20
20
20
20
20
20
20
20
C0
ENDCHAR
STARTCHAR C107
ENCODING 107
SWIDTH 308 0
DWIDTH 4 0
BBX 4 10 0 1
BITMAP
80
80
80
90
A0
C0
C0
A0
A0
90
ENDCHAR
STARTCHAR C108
ENCODING 108
SWIDTH 154 0
DWIDTH 2 0
BBX 1 10 0 1
BITMAP
80
80
80
80
80
80
80
80
80
80
ENDCHAR
STARTCHAR C109
ENCODING 109
SWIDTH 538 0
DWIDTH 7 0
BBX 7 7 0 1
BITMAP
A4
DA
92
92
92
92
92
ENDCHAR
STARTCHAR C110
ENCODING 110
SWIDTH 308 0
DWIDTH 4 0
BBX 4 7 0 1
BITMAP
A0
D0
90
90
90
90
90
ENDCHAR
STARTCHAR C111
ENCODING 111
SWIDTH 308 0
DWIDTH 4 0
BBX 4 7 0 1
BITMAP
60
90
90
90
90
90
60
ENDCHAR
STARTCHAR C112
ENCODING 112
SWIDTH 308 0
DWIDTH 4 0
BBX 4 10 0 -2
BITMAP
A0
D0
90
90
90
D0
A0
80
80
80
ENDCHAR
STARTCHAR C113
ENCODING 113
SWIDTH 308 0
DWIDTH 4 0
BBX 4 10 0 -2
BITMAP
50
B0
90
90
90
B0
50
10
10
10
ENDCHAR
STARTCHAR C114
ENCODING 114
SWIDTH 231 0
DWIDTH 3 0
BBX 3 7 0 1
BITMAP
A0
C0
80
80
80
80
80
ENDCHAR
STARTCHAR C115
ENCODING 115
SWIDTH 308 0
DWIDTH 4 0
BBX 4 7 0 1
BITMAP
60
90
80
60
10
90
60
ENDCHAR
STARTCHAR C116
ENCODING 116
SWIDTH 231 0
DWIDTH 3 0
BBX 3 9 0 1
BITMAP
40
40
E0
40
40
40
40
40
60
ENDCHAR
STARTCHAR C117
ENCODING 117
SWIDTH 385 0
DWIDTH 5 0
BBX 4 7 0 1
BITMAP
90
90
90
90
90
90
70
ENDCHAR
STARTCHAR C118
ENCODING 118
SWIDTH 385 0
DWIDTH 5 0
BBX 5 7 0 1
BITMAP
88
88
50
50
50
20
20
ENDCHAR
STARTCHAR C119
ENCODING 119
SWIDTH 538 0
DWIDTH 7 0
BBX 7 7 0 1
BITMAP
92
92
AA
AA
AA
44
44
ENDCHAR
STARTCHAR C120
ENCODING 120
SWIDTH 385 0
DWIDTH 5 0
BBX 5 7 0 1
BITMAP
88
50
50
20
50
50
88
ENDCHAR
STARTCHAR C121
ENCODING 121
SWIDTH 385 0
DWIDTH 5 0
BBX 5 10 0 -2
BITMAP
88
88
50
50
50
20
20
20
20
C0
ENDCHAR
STARTCHAR C122
ENCODING 122
SWIDTH 308 0
DWIDTH 4 0
BBX 4 7 0 1
BITMAP
F0
20
20
40
40
40
F0
ENDCHAR
STARTCHAR C123
ENCODING 123
SWIDTH 231 0
DWIDTH 3 0
BBX 3 13 0 -2
BITMAP
20
40
40
40
40
40
80
40
40
40
40
40
20
ENDCHAR
STARTCHAR C124
ENCODING 124
SWIDTH 154 0
DWIDTH 2 0
BBX 1 12 1 -1
BITMAP
80
80
80
80
80
80
80
80
80
80
80
80
ENDCHAR
STARTCHAR C125
ENCODING 125
SWIDTH 231 0
DWIDTH 3 0
BBX 3 13 0 -2
BITMAP
80
40
40
40
40
40
20
40
40
40
40
40
80
ENDCHAR
STARTCHAR C126
ENCODING 126
SWIDTH 462 0
DWIDTH 6 0
BBX 6 2 0 5
BITMAP
64
98
ENDCHAR
STARTCHAR C127
ENCODING 127
SWIDTH 385 0
DWIDTH 5 0
BBX 0 0 0 0
BITMAP
ENDCHAR
STARTCHAR C160
ENCODING 160
SWIDTH 154 0
DWIDTH 2 0
BBX 0 0 0 0
BITMAP
ENDCHAR
STARTCHAR C161
ENCODING 161
SWIDTH 154 0
DWIDTH 2 0
BBX 1 10 0 1
BITMAP
80
80
00
80
80
80
80
80
80
80
ENDCHAR
STARTCHAR C162
ENCODING 162
SWIDTH 385 0
DWIDTH 5 0
BBX 5 10 0 -1
BITMAP
20
20
70
88
80
80
88
70
20
20
ENDCHAR
STARTCHAR C163
ENCODING 163
SWIDTH 385 0
DWIDTH 5 0
BBX 5 10 0 1
BITMAP
30
50
40
40
E0
40
40
40
40
F8
ENDCHAR
STARTCHAR C164
ENCODING 164
SWIDTH 385 0
DWIDTH 5 0
BBX 5 6 0 3
BITMAP
88
70
88
88
70
88
ENDCHAR
STARTCHAR C165
ENCODING 165
SWIDTH 385 0
DWIDTH 5 0
BBX 5 10 0 1
BITMAP
88
88
50
70
20
F8
20
F8
20
20
ENDCHAR
STARTCHAR C166
ENCODING 166
SWIDTH 154 0
DWIDTH 2 0
BBX 1 13 0 -2
BITMAP
80
80
80
80
80
80
00
80
80
80
80
80
80
ENDCHAR
STARTCHAR C167
ENCODING 167
SWIDTH 308 0
DWIDTH 4 0
BBX 4 12 0 -1
BITMAP
60
90
80
40
60
A0
A0
60
20
10
90
60
ENDCHAR
STARTCHAR C168
ENCODING 168
SWIDTH 231 0
DWIDTH 3 0
BBX 3 1 0 10
BITMAP
A0
ENDCHAR
STARTCHAR C169
ENCODING 169
SWIDTH 692 0
DWIDTH 9 0
BBX 9 10 0 1
BITMAP
1C00
2200
5900
A480
A080
A080
A480
5900
2200
1C00
ENDCHAR
STARTCHAR C170
ENCODING 170
SWIDTH 308 0
DWIDTH 4 0
BBX 4 6 0 5
BITMAP
60
A0
A0
70
00
F0
ENDCHAR
STARTCHAR C171
ENCODING 171
SWIDTH 385 0
DWIDTH 5 0
BBX 5 5 0 3
BITMAP
28
50
A0
50
28
ENDCHAR
STARTCHAR C172
ENCODING 172
SWIDTH 308 0
DWIDTH 4 0
BBX 4 3 0 4
BITMAP
F0
10
10
ENDCHAR
STARTCHAR C173
ENCODING 173
SWIDTH 231 0
DWIDTH 3 0
BBX 3 1 0 6
BITMAP
E0
ENDCHAR
STARTCHAR C174
ENCODING 174
SWIDTH 692 0
DWIDTH 9 0
BBX 9 10 0 1
BITMAP
1C00
2200
5900
9480
9480
9880
9580
5500
2200
1C00
ENDCHAR
STARTCHAR C175
ENCODING 175
SWIDTH 231 0
DWIDTH 3 0
BBX 3 1 0 10
BITMAP
E0
ENDCHAR
STARTCHAR C176
ENCODING 176
SWIDTH 308 0
DWIDTH 4 0
BBX 4 4 0 7
BITMAP
60
90
90
60
ENDCHAR
STARTCHAR C177
ENCODING 177
SWIDTH 231 0
DWIDTH 3 0
BBX 3 7 0 2
BITMAP
40
40
E0
40
40
00
E0
ENDCHAR
STARTCHAR C178
ENCODING 178
SWIDTH 231 0
DWIDTH 3 0
BBX 3 5 0 6
BITMAP
C0
20
40
80
E0
ENDCHAR
STARTCHAR C179
ENCODING 179
SWIDTH 231 0
DWIDTH 3 0
BBX 3 5 0 6
BITMAP
C0
20
40
20
C0
ENDCHAR
STARTCHAR C180
ENCODING 180
SWIDTH 154 0
DWIDTH 2 0
BBX 2 2 0 9
BITMAP
40
80
ENDCHAR
STARTCHAR C181
ENCODING 181
SWIDTH 308 0
DWIDTH 4 0
BBX 4 10 0 -2
BITMAP
90
90
90
90
90
F0
90
80
80
80
ENDCHAR
STARTCHAR C182
ENCODING 182
SWIDTH 308 0
DWIDTH 4 0
BBX 4 10 0 1
BITMAP
70
D0
D0
D0
50
50
50
50
50
50
ENDCHAR
STARTCHAR C183
ENCODING 183
SWIDTH 77 0
DWIDTH 1 0
BBX 1 2 0 5
BITMAP
80
80
ENDCHAR
STARTCHAR C184
ENCODING 184
SWIDTH 154 0
DWIDTH 2 0
BBX 2 3 0 -2
BITMAP
80
40
C0
ENDCHAR
STARTCHAR C185
ENCODING 185
SWIDTH 154 0
DWIDTH 2 0
BBX 2 5 0 6
BITMAP
40
C0
40
40
40
ENDCHAR
STARTCHAR C186
ENCODING 186
SWIDTH 308 0
DWIDTH 4 0
BBX 4 6 0 5
BITMAP
60
90
90
60
00
F0
ENDCHAR
STARTCHAR C187
ENCODING 187
SWIDTH 385 0
DWIDTH 5 0
BBX 5 5 0 3
BITMAP
A0
50
28
50
A0
ENDCHAR
STARTCHAR C188
ENCODING 188
SWIDTH 615 0
DWIDTH 8 0
BBX 8 9 0 1
BITMAP
40
C0
44
48
12
26
4A
0F
02
ENDCHAR
STARTCHAR C189
ENCODING 189
SWIDTH 615 0
DWIDTH 8 0
BBX 8 9 0 1
BITMAP
40
C0
44
48
10
2C
52
84
0F
ENDCHAR
STARTCHAR C190
ENCODING 190
SWIDTH 615 0
DWIDTH 8 0
BBX 8 9 0 1
BITMAP
C0
20
44
28
D2
26
4A
0F
02
ENDCHAR
STARTCHAR C191
ENCODING 191
SWIDTH 462 0
DWIDTH 6 0
BBX 6 11 0 0
BITMAP
10
10
00
10
10
60
80
84
84
48
30
ENDCHAR
STARTCHAR C192
ENCODING 192
SWIDTH 538 0
DWIDTH 7 0
BBX 7 10 0 1
BITMAP
20
10
00
10
28
28
44
FE
82
82
ENDCHAR
STARTCHAR C193
ENCODING 193
SWIDTH 538 0
DWIDTH 7 0
BBX 7 10 0 1
BITMAP
08
10
00
10
28
28
44
FE
82
82
ENDCHAR
STARTCHAR C194
ENCODING 194
SWIDTH 538 0
DWIDTH 7 0
BBX 7 10 0 1
BITMAP
10
28
00
10
28
28
44
FE
82
82
ENDCHAR
STARTCHAR C195
ENCODING 195
SWIDTH 538 0
DWIDTH 7 0
BBX 7 10 0 1
BITMAP
14
28
00
10
28
28
44
FE
82
82
ENDCHAR
STARTCHAR C196
ENCODING 196
SWIDTH 538 0
DWIDTH 7 0
BBX 7 10 0 1
BITMAP
28
00
00
10
28
28
44
FE
82
82
ENDCHAR
STARTCHAR C197
ENCODING 197
SWIDTH 538 0
DWIDTH 7 0
BBX 7 10 0 1
BITMAP
10
28
10
10
28
28
44
FE
82
82
ENDCHAR
STARTCHAR C198
ENCODING 198
SWIDTH 615 0
DWIDTH 8 0
BBX 8 10 0 1
BITMAP
0F
18
28
28
48
4E
F8
88
88
8F
ENDCHAR
STARTCHAR C199
ENCODING 199
SWIDTH 462 0
DWIDTH 6 0
BBX 6 12 0 -1
BITMAP
38
48
84
80
80
80
80
84
48
30
10
20
ENDCHAR
STARTCHAR C200
ENCODING 200
SWIDTH 385 0
DWIDTH 5 0
BBX 5 10 0 1
BITMAP
40
20
00
F8
80
80
F0
80
80
F8
ENDCHAR
STARTCHAR C201
ENCODING 201
SWIDTH 385 0
DWIDTH 5 0
BBX 5 10 0 1
BITMAP
20
40
00
F8
80
80
F0
80
80
F8
ENDCHAR
STARTCHAR C202
ENCODING 202
SWIDTH 385 0
DWIDTH 5 0
BBX 5 10 0 1
BITMAP
20
50
00
F8
80
80
F0
80
80
F8
ENDCHAR
STARTCHAR C203
ENCODING 203
SWIDTH 385 0
DWIDTH 5 0
BBX 5 10 0 1
BITMAP
50
00
00
F8
80
80
F0
80
80
F8
ENDCHAR
STARTCHAR C204
ENCODING 204
SWIDTH 154 0
DWIDTH 2 0
BBX 2 10 0 1
BITMAP
80
40
00
40
40
40
40
40
40
40
ENDCHAR
STARTCHAR C205
ENCODING 205
SWIDTH 154 0
DWIDTH 2 0
BBX 2 10 0 1
BITMAP
40
80
00
80
80
80
80
80
80
80
ENDCHAR
STARTCHAR C206
ENCODING 206
SWIDTH 231 0
DWIDTH 3 0
BBX 3 10 0 1
BITMAP
40
A0
00
40
40
40
40
40
40
40
ENDCHAR
STARTCHAR C207
ENCODING 207
SWIDTH 231 0
DWIDTH 3 0
BBX 3 10 0 1
BITMAP
A0
00
40
40
40
40
40
40
40
40
ENDCHAR
STARTCHAR C208
ENCODING 208
SWIDTH 538 0
DWIDTH 7 0
BBX 7 10 0 1
BITMAP
F0
48
44
42
42
F2
42
44
48
70
ENDCHAR
STARTCHAR C209
ENCODING 209
SWIDTH 462 0
DWIDTH 6 0
BBX 6 10 0 1
BITMAP
28
50
84
C4
A4
94
94
94
8C
84
ENDCHAR
STARTCHAR C210
ENCODING 210
SWIDTH 462 0
DWIDTH 6 0
BBX 6 10 0 1
BITMAP
20
10
30
48
84
84
84
84
48
30
ENDCHAR
STARTCHAR C211
ENCODING 211
SWIDTH 462 0
DWIDTH 6 0
BBX 6 10 0 1
BITMAP
08
10
30
48
84
84
84
84
48
30
ENDCHAR
STARTCHAR C212
ENCODING 212
SWIDTH 462 0
DWIDTH 6 0
BBX 6 10 0 1
BITMAP
10
28
30
48
84
84
84
84
48
30
ENDCHAR
STARTCHAR C213
ENCODING 213
SWIDTH 462 0
DWIDTH 6 0
BBX 6 10 0 1
BITMAP
28
50
30
48
84
84
84
84
48
30
ENDCHAR
STARTCHAR C214
ENCODING 214
SWIDTH 462 0
DWIDTH 6 0
BBX 6 10 0 1
BITMAP
28
00
30
48
84
84
84
84
48
30
ENDCHAR
STARTCHAR C215
ENCODING 215
SWIDTH 462 0
DWIDTH 6 0
BBX 6 5 0 3
BITMAP
84
48
30
48
84
ENDCHAR
STARTCHAR C216
ENCODING 216
SWIDTH 538 0
DWIDTH 7 0
BBX 7 10 0 1
BITMAP
34
4C
8A
92
A2
A2
A2
C2
44
98
ENDCHAR
STARTCHAR C217
ENCODING 217
SWIDTH 462 0
DWIDTH 6 0
BBX 6 10 0 1
BITMAP
20
10
84
84
84
84
84
84
48
30
ENDCHAR
STARTCHAR C218
ENCODING 218
SWIDTH 462 0
DWIDTH 6 0
BBX 6 10 0 1
BITMAP
10
20
84
84
84
84
84
84
48
30
ENDCHAR
STARTCHAR C219
ENCODING 219
SWIDTH 462 0
DWIDTH 6 0
BBX 6 10 0 1
BITMAP
10
28
84
84
84
84
84
84
48
30
ENDCHAR
STARTCHAR C220
ENCODING 220
SWIDTH 462 0
DWIDTH 6 0
BBX 6 10 0 1
BITMAP
28
00
84
84
84
84
84
84
48
30
ENDCHAR
STARTCHAR C221
ENCODING 221
SWIDTH 385 0
DWIDTH 5 0
BBX 5 10 0 1
BITMAP
10
20
88
88
50
50
20
20
20
20
ENDCHAR
STARTCHAR C222
ENCODING 222
SWIDTH 308 0
DWIDTH 4 0
BBX 4 10 0 1
BITMAP
80
80
E0
90
90
90
E0
80
80
80
ENDCHAR
STARTCHAR C223
ENCODING 223
SWIDTH 385 0
DWIDTH 5 0
BBX 5 12 0 -2
BITMAP
60
90
90
90
A0
90
88
88
B0
80
80
80
ENDCHAR
STARTCHAR C224
ENCODING 224
SWIDTH 308 0
DWIDTH 4 0
BBX 4 10 0 1
BITMAP
80
40
00
60
90
10
70
90
B0
50
ENDCHAR
STARTCHAR C225
ENCODING 225
SWIDTH 308 0
DWIDTH 4 0
BBX 4 10 0 1
BITMAP
20
40
00
60
90
10
70
90
B0
50
ENDCHAR
STARTCHAR C226
ENCODING 226
SWIDTH 308 0
DWIDTH 4 0
BBX 4 10 0 1
BITMAP
40
A0
00
60
90
10
70
90
B0
50
ENDCHAR
STARTCHAR C227
ENCODING 227
SWIDTH 308 0
DWIDTH 4 0
BBX 4 10 0 1
BITMAP
50
A0
00
60
90
10
70
90
B0
50
ENDCHAR
STARTCHAR C228
ENCODING 228
SWIDTH 308 0
DWIDTH 4 0
BBX 4 10 0 1
BITMAP
50
00
00
60
90
10
70
90
B0
50
ENDCHAR
STARTCHAR C229
ENCODING 229
SWIDTH 308 0
DWIDTH 4 0
BBX 4 10 0 1
BITMAP
40
A0
40
60
90
10
70
90
B0
50
ENDCHAR
STARTCHAR C230
ENCODING 230
SWIDTH 538 0
DWIDTH 7 0
BBX 7 7 0 1
BITMAP
6C
12
12
7E
A0
92
7C
ENDCHAR
STARTCHAR C231
ENCODING 231
SWIDTH 308 0
DWIDTH 4 0
BBX 4 9 0 -1
BITMAP
60
90
80
80
80
90
60
40
80
ENDCHAR
STARTCHAR C232
ENCODING 232
SWIDTH 308 0
DWIDTH 4 0
BBX 4 10 0 1
BITMAP
80
40
00
60
90
90
F0
80
90
60
ENDCHAR
STARTCHAR C233
ENCODING 233
SWIDTH 308 0
DWIDTH 4 0
BBX 4 10 0 1
BITMAP
20
40
00
60
90
90
F0
80
90
60
ENDCHAR
STARTCHAR C234
ENCODING 234
SWIDTH 308 0
DWIDTH 4 0
BBX 4 10 0 1
BITMAP
40
A0
00
60
90
90
F0
80
90
60
ENDCHAR
STARTCHAR C235
ENCODING 235
SWIDTH 308 0
DWIDTH 4 0
BBX 4 10 0 1
BITMAP
50
00
00
60
90
90
F0
80
90
60
ENDCHAR
STARTCHAR C236
ENCODING 236
SWIDTH 154 0
DWIDTH 2 0
BBX 2 10 0 1
BITMAP
80
40
00
40
40
40
40
40
40
40
ENDCHAR
STARTCHAR C237
ENCODING 237
SWIDTH 154 0
DWIDTH 2 0
BBX 2 10 0 1
BITMAP
40
80
00
40
40
40
40
40
40
40
ENDCHAR
STARTCHAR C238
ENCODING 238
SWIDTH 231 0
DWIDTH 3 0
BBX 3 10 0 1
BITMAP
40
A0
00
40
40
40
40
40
40
40
ENDCHAR
STARTCHAR C239
ENCODING 239
SWIDTH 231 0
DWIDTH 3 0
BBX 3 9 0 1
BITMAP
A0
00
40
40
40
40
40
40
40
ENDCHAR
STARTCHAR C240
ENCODING 240
SWIDTH 462 0
DWIDTH 6 0
BBX 6 9 0 1
BITMAP
D0
20
50
08
78
44
84
48
30
ENDCHAR
STARTCHAR C241
ENCODING 241
SWIDTH 308 0
DWIDTH 4 0
BBX 4 10 0 1
BITMAP
50
A0
00
A0
D0
90
90
90
90
90
ENDCHAR
STARTCHAR C242
ENCODING 242
SWIDTH 308 0
DWIDTH 4 0
BBX 4 10 0 1
BITMAP
40
20
00
60
90
90
90
90
90
60
ENDCHAR
STARTCHAR C243
ENCODING 243
SWIDTH 308 0
DWIDTH 4 0
BBX 4 10 0 1
BITMAP
20
40
00
60
90
90
90
90
90
60
ENDCHAR
STARTCHAR C244
ENCODING 244
SWIDTH 308 0
DWIDTH 4 0
BBX 4 10 0 1
BITMAP
20
50
00
60
90
90
90
90
90
60
ENDCHAR
STARTCHAR C245
ENCODING 245
SWIDTH 308 0
DWIDTH 4 0
BBX 4 10 0 1
BITMAP
50
A0
00
60
90
90
90
90
90
60
ENDCHAR
STARTCHAR C246
ENCODING 246
SWIDTH 308 0
DWIDTH 4 0
BBX 4 10 0 1
BITMAP
A0
00
00
60
90
90
90
90
90
60
ENDCHAR
STARTCHAR C247
ENCODING 247
SWIDTH 385 0
DWIDTH 5 0
BBX 5 5 0 3
BITMAP
20
00
F8
00
20
ENDCHAR
STARTCHAR C248
ENCODING 248
SWIDTH 538 0
DWIDTH 7 0
BBX 7 7 0 1
BITMAP
3A
4C
54
54
54
64
B8
ENDCHAR
STARTCHAR C249
ENCODING 249
SWIDTH 308 0
DWIDTH 4 0
BBX 4 10 0 1
BITMAP
40
20
00
90
90
90
90
90
90
70
ENDCHAR
STARTCHAR C250
ENCODING 250
SWIDTH 308 0
DWIDTH 4 0
BBX 4 10 0 1
BITMAP
20
40
00
90
90
90
90
90
90
70
ENDCHAR
STARTCHAR C251
ENCODING 251
SWIDTH 308 0
DWIDTH 4 0
BBX 4 10 0 1
BITMAP
40
A0
00
90
90
90
90
90
90
70
ENDCHAR
STARTCHAR C252
ENCODING 252
SWIDTH 308 0
DWIDTH 4 0
BBX 4 10 0 1
BITMAP
A0
00
00
90
90
90
90
90
90
70
ENDCHAR
STARTCHAR C253
ENCODING 253
SWIDTH 231 0
DWIDTH 3 0
BBX 3 13 0 -2
BITMAP
20
40
00
A0
A0
A0
A0
A0
40
40
40
40
80
ENDCHAR
STARTCHAR C254
ENCODING 254
SWIDTH 385 0
DWIDTH 5 0
BBX 5 13 0 -2
BITMAP
80
80
80
A0
D0
88
88
88
D0
A0
80
80
80
ENDCHAR
STARTCHAR C255
ENCODING 255
SWIDTH 231 0
DWIDTH 3 0
BBX 3 13 0 -2
BITMAP
A0
00
00
A0
A0
A0
A0
A0
40
40
40
40
80
ENDCHAR
STARTCHAR C140
ENCODING 338
SWIDTH 615 0
DWIDTH 8 0
BBX 8 10 0 1
BITMAP
2F
58
88
88
8F
88
88
88
58
2F
ENDCHAR
STARTCHAR C156
ENCODING 339
SWIDTH 538 0
DWIDTH 7 0
BBX 7 7 0 1
BITMAP
6C
B2
92
9C
98
9A
66
ENDCHAR
STARTCHAR C138
ENCODING 352
SWIDTH 385 0
DWIDTH 5 0
BBX 5 10 0 1
BITMAP
50
20
70
88
80
40
30
08
88
70
ENDCHAR
STARTCHAR C154
ENCODING 353
SWIDTH 308 0
DWIDTH 4 0
BBX 4 11 0 0
BITMAP
50
20
00
60
90
80
40
40
30
90
60
ENDCHAR
STARTCHAR C159
ENCODING 376
SWIDTH 385 0
DWIDTH 5 0
BBX 5 10 0 1
BITMAP
50
00
88
88
88
70
20
20
20
20
ENDCHAR
STARTCHAR C131
ENCODING 402
SWIDTH 385 0
DWIDTH 5 0
BBX 5 13 0 -2
BITMAP
18
20
20
20
F0
40
40
40
40
40
40
40
80
ENDCHAR
STARTCHAR C136
ENCODING 710
SWIDTH 154 0
DWIDTH 2 0
BBX 3 2 -1 9
BITMAP
40
A0
ENDCHAR
STARTCHAR C152
ENCODING 732
SWIDTH 308 0
DWIDTH 4 0
BBX 4 2 0 9
BITMAP
50
A0
ENDCHAR
STARTCHAR C150
ENCODING 8211
SWIDTH 154 0
DWIDTH 2 0
BBX 2 1 0 5
BITMAP
C0
ENDCHAR
STARTCHAR C151
ENCODING 8212
SWIDTH 231 0
DWIDTH 3 0
BBX 3 1 0 5
BITMAP
E0
ENDCHAR
STARTCHAR C145
ENCODING 8216
SWIDTH 154 0
DWIDTH 2 0
BBX 2 3 0 8
BITMAP
40
80
C0
ENDCHAR
STARTCHAR C146
ENCODING 8217
SWIDTH 154 0
DWIDTH 2 0
BBX 2 3 0 8
BITMAP
C0
40
80
ENDCHAR
STARTCHAR C130
ENCODING 8218
SWIDTH 154 0
DWIDTH 2 0
BBX 1 3 1 -1
BITMAP
80
80
80
ENDCHAR
STARTCHAR C147
ENCODING 8220
SWIDTH 385 0
DWIDTH 5 0
BBX 5 3 0 8
BITMAP
48
90
D8
ENDCHAR
STARTCHAR C148
ENCODING 8221
SWIDTH 385 0
DWIDTH 5 0
BBX 5 3 0 8
BITMAP
D8
48
90
ENDCHAR
STARTCHAR C132
ENCODING 8222
SWIDTH 231 0
DWIDTH 3 0
BBX 3 3 0 -1
BITMAP
A0
A0
A0
ENDCHAR
STARTCHAR C134
ENCODING 8224
SWIDTH 385 0
DWIDTH 5 0
BBX 5 12 0 -1
BITMAP
20
20
20
F8
20
20
20
20
20
20
20
20
ENDCHAR
STARTCHAR C135
ENCODING 8225
SWIDTH 385 0
DWIDTH 5 0
BBX 5 12 0 -1
BITMAP
20
20
F8
20
20
20
20
20
20
F8
20
20
ENDCHAR
STARTCHAR C149
ENCODING 8226
SWIDTH 154 0
DWIDTH 2 0
BBX 2 2 0 5
BITMAP
C0
C0
ENDCHAR
STARTCHAR C133
ENCODING 8230
SWIDTH 692 0
DWIDTH 9 0
BBX 7 1 1 1
BITMAP
92
ENDCHAR
STARTCHAR C137
ENCODING 8240
SWIDTH 846 0
DWIDTH 11 0
BBX 11 10 0 1
BITMAP
4400
A800
A800
A800
5000
1440
2AA0
2AA0
2AA0
4440
ENDCHAR
STARTCHAR C139
ENCODING 8249
SWIDTH 231 0
DWIDTH 3 0
BBX 3 5 0 3
BITMAP
20
40
80
40
20
ENDCHAR
STARTCHAR C155
ENCODING 8250
SWIDTH 231 0
DWIDTH 3 0
BBX 3 5 0 2
BITMAP
80
40
20
40
80
ENDCHAR
STARTCHAR C153
ENCODING 8482
SWIDTH 462 0
DWIDTH 6 0
BBX 6 5 0 6
BITMAP
F4
5C
5C
54
54
ENDCHAR
STARTCHAR C9
ENCODING 8594
SWIDTH 615 0
DWIDTH 8 0
BBX 8 5 0 2
BITMAP
04
06
FF
06
04
ENDCHAR
STARTCHAR C7
ENCODING 8595
SWIDTH 385 0
DWIDTH 5 0
BBX 5 8 0 2
BITMAP
20
20
20
20
20
F8
70
20
ENDCHAR
STARTCHAR C14
ENCODING 9635
SWIDTH 692 0
DWIDTH 9 0
BBX 9 11 0 0
BITMAP
FF80
8080
8080
9C80
9C80
9C80
9C80
9C80
8080
8080
FF80
ENDCHAR
ENDFONT
